<svg width="41" height="40" viewBox="0 0 41 40" fill="none" xmlns="http://www.w3.org/2000/svg">
<path d="M38.3378 9.81418C37.065 10.3791 35.697 10.7596 34.2614 10.9311C35.7273 10.0534 36.8531 8.6627 37.3821 7.00538C36.0113 7.81819 34.492 8.40906 32.8747 8.72755C31.5817 7.34838 29.7352 6.48657 27.6942 6.48657C23.1118 6.48657 19.7446 10.761 20.7796 15.1983C14.8826 14.9029 9.65307 12.0782 6.15181 7.78504C4.29235 10.9743 5.18749 15.1464 8.34713 17.2591C7.18533 17.2217 6.08983 16.9032 5.13416 16.3714C5.05632 19.6586 7.41307 22.734 10.8264 23.4186C9.82749 23.6895 8.73343 23.7529 7.62064 23.5396C8.52298 26.3585 11.1435 28.4093 14.2513 28.4669C11.2675 30.8059 7.50821 31.8507 3.74316 31.4069C6.88406 33.4201 10.616 34.5947 14.6232 34.5947C27.8008 34.5947 35.2459 23.4676 34.7961 13.4877C36.1828 12.4861 37.3864 11.2366 38.3378 9.81418Z" fill="#5D6588"/>
</svg>
