<svg width="40" height="40" viewBox="0 0 40 40" fill="none" xmlns="http://www.w3.org/2000/svg">
<path d="M32.6055 10.9297L35 8.62891V8.125H26.707L20.7969 22.9063L14.0742 8.125H5.37891V8.62891L8.17578 12.0117C8.44922 12.2617 8.58984 12.6289 8.55469 12.9961V26.2891C8.64062 26.7695 8.48828 27.2578 8.15234 27.6055L5 31.4453V31.9414H13.9297V31.4375L10.7812 27.6094C10.4414 27.2617 10.2773 26.7773 10.3477 26.293V14.793L18.1875 31.9492H19.0977L25.8398 14.793V28.4609C25.8398 28.8203 25.8398 28.8945 25.6055 29.1328L23.1797 31.4883V31.9922H34.9453V31.4883L32.6055 29.1875C32.4023 29.0312 32.2969 28.7695 32.3398 28.5156V11.6016C32.2969 11.3477 32.4023 11.0859 32.6055 10.9297Z" fill="white"/>
<path d="M32.6055 10.9297L35 8.62891V8.125H26.707L20.7969 22.9063L14.0742 8.125H5.37891V8.62891L8.17578 12.0117C8.44922 12.2617 8.58984 12.6289 8.55469 12.9961V26.2891C8.64062 26.7695 8.48828 27.2578 8.15234 27.6055L5 31.4453V31.9414H13.9297V31.4375L10.7812 27.6094C10.4414 27.2617 10.2773 26.7773 10.3477 26.293V14.793L18.1875 31.9492H19.0977L25.8398 14.793V28.4609C25.8398 28.8203 25.8398 28.8945 25.6055 29.1328L23.1797 31.4883V31.9922H34.9453V31.4883L32.6055 29.1875C32.4023 29.0312 32.2969 28.7695 32.3398 28.5156V11.6016C32.2969 11.3477 32.4023 11.0859 32.6055 10.9297Z" fill="#5D6588"/>
</svg>
