<svg width="40" height="40" viewBox="0 0 40 40" fill="none" xmlns="http://www.w3.org/2000/svg">
<g opacity="0.85">
<path d="M16.3316 31.8647L16.8094 24.6469L29.9141 12.8389C30.4943 12.31 29.7947 12.054 29.0268 12.5147L12.8506 22.7358L5.85459 20.5175C4.353 20.0909 4.33594 19.0501 6.19586 18.2993L33.4463 7.78815C34.6919 7.22506 35.8863 8.0953 35.4086 10.0064L30.7673 31.8647C30.4431 33.4175 29.5046 33.7929 28.2078 33.0763L21.1435 27.8548L17.7478 31.1481C17.3554 31.5405 17.0312 31.8647 16.3316 31.8647Z" fill="white"/>
<path d="M16.3316 31.8647L16.8094 24.6469L29.9141 12.8389C30.4943 12.31 29.7947 12.054 29.0268 12.5147L12.8506 22.7358L5.85459 20.5175C4.353 20.0909 4.33594 19.0501 6.19586 18.2993L33.4463 7.78815C34.6919 7.22506 35.8863 8.0953 35.4086 10.0064L30.7673 31.8647C30.4431 33.4175 29.5046 33.7929 28.2078 33.0763L21.1435 27.8548L17.7478 31.1481C17.3554 31.5405 17.0312 31.8647 16.3316 31.8647Z" fill="#5D6588"/>
</g>
</svg>
