<svg width="40" height="40" viewBox="0 0 40 40" fill="none" xmlns="http://www.w3.org/2000/svg">
<path d="M31.5417 2.79077C33.5948 2.79077 35.2508 4.46542 35.3486 6.43612V38.1396L31.4395 34.7918L29.2929 32.8211L26.9506 30.762L27.929 34.0097H7.42978C5.38249 34.0097 3.7207 32.4411 3.7207 30.3629V6.44349C3.7207 4.47279 5.38541 2.79519 7.43708 2.79519H31.5315L31.5417 2.79077ZM22.6078 11.1611H22.564L22.269 11.4557C25.2961 12.3394 26.7608 13.7195 26.7608 13.7195C24.8099 12.7356 23.0517 12.2436 21.2935 12.0448C20.0231 11.846 18.7527 11.9505 17.6794 12.0448H17.3873C16.701 12.0448 15.2407 12.3394 13.284 13.1274C12.602 13.4264 12.2107 13.6222 12.2107 13.6222C12.2107 13.6222 13.6739 12.1464 16.8981 11.3584L16.701 11.1596C16.701 11.1596 14.2594 11.0653 11.6237 13.0302C11.6237 13.0302 8.98788 17.6609 8.98788 23.3697C8.98788 23.3697 10.4482 25.9325 14.4537 26.0297C14.4537 26.0297 15.0378 25.2446 15.6292 24.5539C13.3804 23.8646 12.5042 22.486 12.5042 22.486C12.5042 22.486 12.6999 22.5832 12.9934 22.7805H13.081C13.1248 22.7805 13.1453 22.8026 13.1686 22.8247V22.8336C13.192 22.8571 13.2124 22.8777 13.2562 22.8777C13.7381 23.0781 14.22 23.2754 14.6143 23.4669C15.2948 23.7644 16.1695 24.0605 17.2428 24.2564C18.6008 24.4552 20.1575 24.5509 21.9302 24.2564C22.8064 24.0575 23.6825 23.8631 24.5587 23.4684C25.1282 23.1738 25.8291 22.8792 26.5987 22.3829C26.5987 22.3829 25.7225 23.7615 23.3788 24.4508C23.8607 25.1371 24.5397 25.9236 24.5397 25.9236C28.5467 25.8353 30.1033 23.2725 30.191 23.3815C30.191 17.6815 27.5406 13.0419 27.5406 13.0419C25.153 11.2539 22.9188 11.1861 22.5246 11.1861L22.6063 11.1567L22.6078 11.1611ZM22.8531 17.6608C23.8797 17.6608 24.7076 18.5446 24.7076 19.6271C24.7076 20.7171 23.8753 21.6008 22.8531 21.6008C21.8309 21.6008 20.9986 20.7171 20.9986 19.636C21.0015 18.546 21.8353 17.6653 22.8531 17.6653V17.6608ZM16.2191 17.6608C17.2413 17.6608 18.0678 18.5446 18.0678 19.6271C18.0678 20.7171 17.2355 21.6008 16.2133 21.6008C15.1911 21.6008 14.3587 20.7171 14.3587 19.636C14.3587 18.546 15.1911 17.6653 16.2133 17.6653L16.2191 17.6608Z" fill="white" fill-opacity="0.85"/>
<path d="M31.5417 2.79077C33.5948 2.79077 35.2508 4.46542 35.3486 6.43612V38.1396L31.4395 34.7918L29.2929 32.8211L26.9506 30.762L27.929 34.0097H7.42978C5.38249 34.0097 3.7207 32.4411 3.7207 30.3629V6.44349C3.7207 4.47279 5.38541 2.79519 7.43708 2.79519H31.5315L31.5417 2.79077ZM22.6078 11.1611H22.564L22.269 11.4557C25.2961 12.3394 26.7608 13.7195 26.7608 13.7195C24.8099 12.7356 23.0517 12.2436 21.2935 12.0448C20.0231 11.846 18.7527 11.9505 17.6794 12.0448H17.3873C16.701 12.0448 15.2407 12.3394 13.284 13.1274C12.602 13.4264 12.2107 13.6222 12.2107 13.6222C12.2107 13.6222 13.6739 12.1464 16.8981 11.3584L16.701 11.1596C16.701 11.1596 14.2594 11.0653 11.6237 13.0302C11.6237 13.0302 8.98788 17.6609 8.98788 23.3697C8.98788 23.3697 10.4482 25.9325 14.4537 26.0297C14.4537 26.0297 15.0378 25.2446 15.6292 24.5539C13.3804 23.8646 12.5042 22.486 12.5042 22.486C12.5042 22.486 12.6999 22.5832 12.9934 22.7805H13.081C13.1248 22.7805 13.1453 22.8026 13.1686 22.8247V22.8336C13.192 22.8571 13.2124 22.8777 13.2562 22.8777C13.7381 23.0781 14.22 23.2754 14.6143 23.4669C15.2948 23.7644 16.1695 24.0605 17.2428 24.2564C18.6008 24.4552 20.1575 24.5509 21.9302 24.2564C22.8064 24.0575 23.6825 23.8631 24.5587 23.4684C25.1282 23.1738 25.8291 22.8792 26.5987 22.3829C26.5987 22.3829 25.7225 23.7615 23.3788 24.4508C23.8607 25.1371 24.5397 25.9236 24.5397 25.9236C28.5467 25.8353 30.1033 23.2725 30.191 23.3815C30.191 17.6815 27.5406 13.0419 27.5406 13.0419C25.153 11.2539 22.9188 11.1861 22.5246 11.1861L22.6063 11.1567L22.6078 11.1611ZM22.8531 17.6608C23.8797 17.6608 24.7076 18.5446 24.7076 19.6271C24.7076 20.7171 23.8753 21.6008 22.8531 21.6008C21.8309 21.6008 20.9986 20.7171 20.9986 19.636C21.0015 18.546 21.8353 17.6653 22.8531 17.6653V17.6608ZM16.2191 17.6608C17.2413 17.6608 18.0678 18.5446 18.0678 19.6271C18.0678 20.7171 17.2355 21.6008 16.2133 21.6008C15.1911 21.6008 14.3587 20.7171 14.3587 19.636C14.3587 18.546 15.1911 17.6653 16.2133 17.6653L16.2191 17.6608Z" fill="#5D6588"/>
</svg>
