<svg width="20" height="20" viewBox="0 0 20 20" fill="none" xmlns="http://www.w3.org/2000/svg">
<path fill-rule="evenodd" clip-rule="evenodd" d="M4.41107 4.41119C4.73651 4.08576 5.26414 4.08576 5.58958 4.41119L10.0003 8.82194L14.4111 4.41119C14.7365 4.08576 15.2641 4.08576 15.5896 4.41119C15.915 4.73663 15.915 5.26427 15.5896 5.5897L11.1788 10.0004L15.5896 14.4112C15.915 14.7366 15.915 15.2643 15.5896 15.5897C15.2641 15.9151 14.7365 15.9151 14.4111 15.5897L10.0003 11.179L5.58958 15.5897C5.26414 15.9151 4.73651 15.9151 4.41107 15.5897C4.08563 15.2643 4.08563 14.7366 4.41107 14.4112L8.82181 10.0004L4.41107 5.5897C4.08563 5.26427 4.08563 4.73663 4.41107 4.41119Z" fill="white" fill-opacity="0.45"/>
</svg>
