<svg width="48" height="48" viewBox="0 0 48 48" fill="none" xmlns="http://www.w3.org/2000/svg">
<path d="M16.6518 14.7137C16.467 14.7137 16.2823 14.6522 16.1591 14.5084L13.3052 11.634C13.0178 11.3671 12.9973 10.9154 13.2642 10.628C13.5311 10.3406 13.9828 10.32 14.2702 10.5869L14.3113 10.628L17.1651 13.5024C17.432 13.7693 17.4526 14.221 17.1856 14.4879L17.1651 14.5084C17.0214 14.6316 16.8366 14.6932 16.6518 14.7137ZM31.3728 14.7137C31.188 14.7137 31.0032 14.6522 30.88 14.5084C30.6131 14.2415 30.5926 13.7898 30.8595 13.5229L30.88 13.5024L33.7339 10.6485C34.0213 10.3816 34.473 10.4022 34.7399 10.6896C34.9863 10.9565 34.9863 11.3877 34.7399 11.6546L31.8861 14.5084C31.7424 14.6316 31.5576 14.6932 31.3728 14.7137ZM24.002 13.7077C23.612 13.7077 23.304 13.3997 23.304 13.0096V8.69806C23.304 8.30797 23.612 8 24.002 8C24.3921 8 24.7001 8.30797 24.7001 8.69806V13.0096C24.7206 13.3997 24.3921 13.7077 24.002 13.7077Z" fill="#323A4F"/>
<path d="M42.4271 27.4252L36.7399 19.0073C36.2061 18.2066 35.3027 17.7139 34.3172 17.7139H13.6011C12.6361 17.7139 11.7327 18.2066 11.1784 19.0073L5.51172 27.4252V37.157C5.51172 38.5737 6.66147 39.7235 8.07814 39.7235H39.9222C41.3389 39.7235 42.4886 38.5737 42.4886 37.157V27.4252H42.4271ZM28.8969 27.4252C28.6505 27.4252 28.4657 27.61 28.4657 27.8563V28.2464C28.4657 30.7102 26.4742 32.7223 23.9899 32.7223C21.5262 32.7223 19.5141 30.7307 19.5141 28.2464V27.8563C19.5141 27.61 19.3293 27.4252 19.0829 27.4252H7.05157L12.246 19.7259C12.554 19.2742 13.0672 19.0073 13.6011 19.0073H34.3377C34.8921 19.0073 35.4053 19.2742 35.6928 19.7259L40.8872 27.4457L28.8969 27.4252Z" fill="#323A4F"/>
</svg>
