<svg width="15" height="22" viewBox="0 0 15 22" fill="none" xmlns="http://www.w3.org/2000/svg">
<path d="M7.00729 20.8266L1.17658 14.9951C1.06995 14.8897 0.985295 14.7641 0.927521 14.6256C0.869747 14.4872 0.839999 14.3387 0.839999 14.1887C0.839999 14.0387 0.869747 13.8902 0.927521 13.7517C0.985295 13.6133 1.06995 13.4877 1.17658 13.3822C1.27627 13.272 1.39796 13.1838 1.5338 13.1235C1.66964 13.0632 1.81661 13.0321 1.96523 13.0321C2.11385 13.0321 2.26082 13.0632 2.39666 13.1235C2.5325 13.1838 2.65419 13.272 2.75388 13.3822L6.79462 17.3703L6.79462 1.27625C6.77455 1.11659 6.78867 0.954488 6.83605 0.800706C6.88342 0.646922 6.96297 0.504979 7.06941 0.384305C7.17585 0.263631 7.30674 0.166984 7.45339 0.100786C7.60005 0.0345872 7.7591 0.000352226 7.92 0.000352241C8.0809 0.000352255 8.23996 0.0345873 8.38661 0.100786C8.53326 0.166984 8.66415 0.263631 8.77059 0.384305C8.87703 0.50498 8.95658 0.646923 9.00396 0.800706C9.05133 0.954488 9.06545 1.11659 9.04538 1.27625L9.04538 17.3703L13.0861 13.2227C13.34 13.0909 13.6289 13.0423 13.9119 13.0836C14.1949 13.125 14.4578 13.2542 14.6634 13.4531C14.7701 13.5586 14.8547 13.6842 14.9125 13.8226C14.9703 13.9611 15 14.1096 15 14.2596C15 14.4096 14.9703 14.5581 14.9125 14.6965C14.8547 14.835 14.7701 14.9606 14.6634 15.066L9.02766 20.8266C8.91545 20.9911 8.76478 21.1257 8.58873 21.2187C8.41268 21.3117 8.21658 21.3604 8.01747 21.3604C7.81836 21.3604 7.62227 21.3117 7.44622 21.2187C7.27017 21.1257 7.1195 20.9911 7.00729 20.8266Z" fill="#54678B"/>
</svg>
